<svg width="262" height="307" viewBox="0 0 262 307" fill="none" xmlns="http://www.w3.org/2000/svg">
<path fill-rule="evenodd" clip-rule="evenodd" d="M253.192 1.78857C259.951 5.041 260.949 10.9053 259.242 37.3686C258.944 41.9812 258.831 47.315 258.825 56.9836C258.818 69.9643 258.917 73.6207 259.9 96.579C262.665 161.159 262.053 192.055 257.814 201.989C246.811 227.773 217.756 242.205 187.273 237.028C156.416 231.788 138.166 207.891 143.508 179.723C150.162 144.64 189.883 127.161 226.18 143.343C227.499 143.932 228.672 144.325 228.786 144.217C229.273 143.755 227.614 98.2132 227.09 97.6896C226.661 97.2598 201.688 108.253 189.519 114.228C188.409 114.773 187.463 115.219 187.416 115.219C187.07 115.219 164.88 126.067 141.946 137.447C117.558 149.55 113.954 151.647 111.896 154.936C111.22 156.018 111.189 163.137 111.832 169.556C113.344 184.64 113.455 187.315 113.81 216.949C113.981 231.216 114.044 231.939 115.239 233.504C121.442 241.629 121.002 260.475 114.299 273.821C103.778 294.767 80.0482 307.706 55.2179 306.035C19.1986 303.611 -4.80408 277.87 1.44541 248.367C8.85342 213.396 46.2519 196.027 82.7188 210.621C84.5226 211.343 86.0476 211.885 86.1073 211.825C86.2916 211.641 85.4693 203.265 83.7043 187.344C76.5614 122.914 77.2138 93.2244 85.9316 85.9701C91.4542 81.3748 114.283 68.8878 159.858 45.5338C168.187 41.2655 185.156 32.4727 190.319 29.7495C192.732 28.4771 195.747 26.8862 197.021 26.2147C209.6 19.5787 219.272 14.3114 226.629 10.0897C241.939 1.30539 248.152 -0.636373 253.192 1.78857ZM210.911 50.8264C215.34 48.5414 223.138 44.4758 225.045 43.4583C225.538 43.1954 225.849 43.0101 226.03 43.0968C226.353 43.2515 226.26 44.2719 226.042 47.2628C225.896 49.2643 225.776 52.2428 225.775 53.8817C225.774 57.7384 225.344 64.4667 225.065 64.986C224.945 65.2092 223.884 65.6989 222.693 66.08C208.869 70.5055 160.084 93.7181 129.396 110.472C120.43 115.367 116.129 117.913 110.898 121.42C110.188 121.896 110.093 118.933 110.636 113.27C110.694 112.667 110.859 110.419 111.001 108.275C111.137 106.242 111.15 105.204 111.575 104.377C112.104 103.346 113.273 102.642 116.115 100.743C122.953 96.1755 135.635 89.3297 164 74.8958C179.374 67.0727 188.533 62.3829 199.58 56.6773C203.466 54.6695 208.566 52.0367 210.911 50.8264ZM177.251 194.174C167.785 181.701 176.377 165.738 193.633 163.737C204.922 162.428 222.38 167.66 225.145 173.181C226.495 175.876 226.802 182.712 225.933 190.755C224.891 200.405 224.038 202.254 219.649 204.367C205.648 211.106 186.633 206.535 177.251 194.174ZM50.4398 272.867C24.9734 263.948 25.9034 235.467 51.7801 231.817C65.2621 229.915 81.4923 236.54 84.9008 245.336C87.3187 251.575 85.9058 264.329 82.3023 268.788C76.8921 275.483 62.9924 277.262 50.4398 272.867Z" fill="black"/>
</svg>
