<svg width="298" height="299" viewBox="0 0 298 299" fill="none" xmlns="http://www.w3.org/2000/svg">
<path d="M139.332 0.867242C168.084 -1.12193 199.845 6.71334 225.252 21.8431C227.122 17.0549 230.45 13.0277 235.273 10.976L235.658 10.8178C243.478 7.7097 251.249 11.2355 256.014 17.7501L256.473 18.4004L256.5 18.4397L256.797 18.8882L256.819 18.9209L256.841 18.9548C257.291 19.6579 257.856 20.6592 258.29 21.9861L258.468 22.5753C258.849 23.9506 259.001 25.3187 259.089 26.5865L259.153 27.7279C259.283 30.6094 259.284 35.0803 259.283 42.2091L259.305 49.1621C259.308 51.4364 259.29 53.5239 259.202 55.3666L259.141 56.4425C258.901 59.9764 258.268 64.2997 255.423 67.972L255.14 68.3256C252.264 71.8148 248.332 73.3872 244.938 74.3751L244.267 74.565C241.581 75.3071 238.218 75.986 234.429 76.7508L234.306 76.7757L234.307 76.7768L230.187 77.6148L230.186 77.6137L230.175 77.6159C221.904 79.3242 216.101 80.5226 211.992 80.6614L211.191 80.6745C208.858 80.6715 206.46 80.3081 204.109 79.1447L203.639 78.9003C201.942 77.9792 200.656 76.8188 199.74 75.9017L199.712 75.8733L198.958 75.0898L198.942 75.0724L198.924 75.0549C196.681 72.6761 194.906 69.7809 194.157 66.4422L194.02 65.7689C193.352 62.0504 194.075 58.421 195.859 55.3011L196.135 54.8363C197.45 52.6975 199.19 50.918 201.193 49.46C201.047 49.3821 200.904 49.3051 200.764 49.2309L199.667 48.6645L198.177 47.928C134.977 17.2598 58.8661 51.4281 39.8944 118.936L39.8933 118.935L39.4438 120.584C35.6316 134.968 34.7078 154.276 37.005 167.582L37.2374 168.851L37.2417 168.875L37.5058 170.276L37.508 170.289L37.5113 170.304C38.1167 173.629 38.5263 176.69 38.6439 179.446L38.6646 180.024C38.7411 182.732 38.5356 185.583 37.6488 188.274L37.448 188.849C36.288 191.986 34.2181 194.651 31.2075 196.417L30.592 196.758C27.5539 198.351 24.2949 198.72 21.5221 198.718C17.0919 198.715 12.9914 197.131 9.70889 193.956C6.85617 191.197 5.00232 187.613 3.727 183.87L3.4793 183.12C0.951199 175.195 0.0140727 163.951 0.023508 149.704V149.677L0.035511 147.895V147.882L0.0366022 147.869C1.00343 70.2112 59.9324 7.30623 137.858 0.977452L137.886 0.975269L139.307 0.869424L139.32 0.868333L139.332 0.867242Z" fill="black"/>
<path d="M160.465 161.636L198.434 197.002L198.471 197.037L198.752 197.304L198.774 197.325L198.796 197.347C206.207 204.608 206.625 216.422 199.746 224.188L199.412 224.554C192.188 232.31 180.122 232.855 172.23 225.869L172.212 225.854L172.193 225.836L171.906 225.577L171.882 225.555L171.859 225.533L127.682 184.386C123.722 180.699 121.474 175.531 121.474 170.12V71.0841C121.474 60.3173 130.203 51.5902 140.969 51.59L141.472 51.5966C152.006 51.8633 160.465 60.4854 160.465 71.0841V161.636Z" fill="black"/>
<path d="M276.103 100.7L276.632 100.705C279.141 100.764 282.138 101.289 284.842 102.77L285.417 103.103L285.463 103.13L285.507 103.158L285.872 103.394L285.919 103.424L285.964 103.454C288.599 105.24 290.329 107.756 291.48 109.913L291.718 110.369C292.887 112.667 293.793 115.259 294.512 117.912L294.794 118.992C296.166 124.459 297.025 131.014 297.427 137.927L297.499 139.273C298.189 153.273 297.103 169.712 293.851 183.67L293.848 183.683L293.844 183.697L293.522 185.036L293.519 185.049L293.516 185.063C269.504 282.476 158.307 328.486 73.4615 278.268C72.6747 282.525 71.1549 286.55 68.4115 289.644L67.9936 290.097C65.6313 292.569 62.5745 294.197 59.0775 294.641L58.3715 294.714C55.0003 294.985 51.8245 294.129 49.0582 292.84L49.0309 292.828L49.0047 292.815L48.5497 292.595L48.5039 292.573C48.4184 292.531 48.3213 292.484 48.214 292.431C47.2082 291.941 45.3075 291.014 43.6612 289.589L43.3011 289.265C41.0362 287.145 39.888 284.615 39.2757 282.066L39.1611 281.557C38.7096 279.439 38.5249 276.952 38.4322 274.181L38.3973 272.977C38.323 269.953 38.3194 266.1 38.3198 261.261V259.555L38.3035 254.678L38.3002 254.09L38.2993 253.933C38.2741 249.703 38.2518 245.97 38.442 242.981L38.4944 242.234C38.787 238.415 39.6069 233.466 43.336 229.765L43.7114 229.406C47.6299 225.794 52.7832 225.173 56.5721 224.935L57.6797 224.876C60.3358 224.758 63.4868 224.769 66.9941 224.789L67.8114 224.793H67.8135L68.3417 224.796L73.2586 224.814H73.8347H73.8907C79.2701 224.813 83.4836 224.813 86.7336 224.889L87.9405 224.922C90.7152 225.011 93.1847 225.187 95.2744 225.614L95.7709 225.722C98.2615 226.294 100.822 227.382 102.974 229.636L103.306 229.999C104.492 231.346 105.319 232.86 105.835 233.899L106.277 234.812L106.291 234.841L106.304 234.869L106.515 235.315L106.528 235.345L106.542 235.375L106.783 235.931C109.112 241.509 108.826 247.767 104.958 252.773L104.558 253.27C104.501 253.339 104.442 253.406 104.383 253.473L104.31 253.555C163.087 278.82 230.598 250.96 254.543 190.098L254.864 189.267C261.322 172.276 263.614 148.459 260.518 131.406L260.361 130.571C259.172 124.457 258.278 119.106 258.858 114.794L258.927 114.32C259.308 111.958 260.16 109.661 261.726 107.572L262.025 107.186C263.54 105.302 265.323 104.035 266.813 103.126L266.857 103.098L266.903 103.073L267.303 102.841L267.348 102.815L267.394 102.791C270.266 101.217 273.474 100.706 276.103 100.7Z" fill="black"/>
</svg>
