<svg width="58" height="50" viewBox="0 0 58 50" fill="none" xmlns="http://www.w3.org/2000/svg">
<path d="M0.953134 48.1534C-1.23843 45.9628 19.0784 12.0654 28.858 1.59601C30.3792 -0.0326284 30.1366 -0.228354 33.0147 4.95067C35.2349 8.94541 39.2027 15.6542 43.6518 22.935C44.8068 24.8254 46.8555 28.2626 48.2044 30.5731C49.5531 32.8836 51.989 37.0082 53.6174 39.7389C57.6326 46.4724 58.0104 47.2086 57.641 47.578C57.0895 48.1293 55.2167 48.2513 44.7697 48.4175C38.9909 48.5093 33.661 48.6363 32.9255 48.6999C28.2367 49.1051 10.6069 49.4286 7.33889 49.1694C3.74169 48.8844 1.2949 48.495 0.953134 48.1534Z" fill="black"/>
</svg>
