<svg width="60" height="50" viewBox="0 0 60 50" fill="none" xmlns="http://www.w3.org/2000/svg">
<path d="M28.9291 3.02507C29.4231 2.03629 29.9595 1.0775 30.1209 0.894854C30.7001 0.239463 31.0025 0.501278 32.0526 2.56656C32.613 3.66868 33.8814 5.74061 34.8712 7.17062C37.313 10.6984 38.8453 13.1307 41.1742 17.1752C47.574 28.2907 47.9055 28.8336 56.1624 41.7235C61.1043 49.4384 61.3714 48.8119 53.1482 48.7923C49.8577 48.7843 46.0971 48.8713 44.7912 48.9856C41.9429 49.2347 12.4185 49.3668 6.31986 49.1578C-0.292745 48.9311 -1.05669 48.2643 1.62604 45.0603C3.78966 42.4761 6.74113 38.4015 9.62368 34.0191C11.1542 31.6921 13.9768 27.4203 15.8961 24.5261C22.6099 14.4018 26.2219 8.44286 28.9291 3.02507Z" fill="black"/>
</svg>
